<svg width="20" height="20" viewBox="0 0 20 20" fill="none" xmlns="http://www.w3.org/2000/svg">
<path d="M10 17C10.3978 17 10.7794 17.158 11.0607 17.4393C11.342 17.7206 11.5 18.1022 11.5 18.5C11.5 18.8978 11.342 19.2794 11.0607 19.5607C10.7794 19.842 10.3978 20 10 20C9.60218 20 9.22064 19.842 8.93934 19.5607C8.65804 19.2794 8.5 18.8978 8.5 18.5C8.5 18.1022 8.65804 17.7206 8.93934 17.4393C9.22064 17.158 9.60218 17 10 17ZM17.5 17C17.8978 17 18.2794 17.158 18.5607 17.4393C18.842 17.7206 19 18.1022 19 18.5C19 18.8978 18.842 19.2794 18.5607 19.5607C18.2794 19.842 17.8978 20 17.5 20C17.1022 20 16.7206 19.842 16.4393 19.5607C16.158 19.2794 16 18.8978 16 18.5C16 18.1022 16.158 17.7206 16.4393 17.4393C16.7206 17.158 17.1022 17 17.5 17ZM2.5 17C2.89782 17 3.27936 17.158 3.56066 17.4393C3.84196 17.7206 4 18.1022 4 18.5C4 18.8978 3.84196 19.2794 3.56066 19.5607C3.27936 19.842 2.89782 20 2.5 20C2.10218 20 1.72064 19.842 1.43934 19.5607C1.15804 19.2794 1 18.8978 1 18.5C1 18.1022 1.15804 17.7206 1.43934 17.4393C1.72064 17.158 2.10218 17 2.5 17ZM15 5C16.3261 5 17.5979 5.52678 18.5355 6.46447C19.4732 7.40215 20 8.67392 20 10C20 11.3261 19.4732 12.5979 18.5355 13.5355C17.5979 14.4732 16.3261 15 15 15C13.156 15 11.49 13.96 10 11.878C8.51 13.96 6.844 15 5 15C3.67392 15 2.40215 14.4732 1.46447 13.5355C0.526784 12.5979 0 11.3261 0 10C0 8.67392 0.526784 7.40215 1.46447 6.46447C2.40215 5.52678 3.67392 5 5 5C6.844 5 8.51 6.04 10 8.122C11.49 6.04 13.156 5 15 5ZM5 7C4.20435 7 3.44129 7.31607 2.87868 7.87868C2.31607 8.44129 2 9.20435 2 10C2 10.7956 2.31607 11.5587 2.87868 12.1213C3.44129 12.6839 4.20435 13 5 13C6.254 13 7.51 12.125 8.759 10.146L8.848 9.999L8.758 9.854C7.561 7.958 6.358 7.074 5.157 7.004L5 7ZM15 7C13.746 7 12.49 7.875 11.241 9.854L11.151 10L11.241 10.146C12.439 12.042 13.641 12.926 14.843 12.996L15 13C15.7956 13 16.5587 12.6839 17.1213 12.1213C17.6839 11.5587 18 10.7956 18 10C18 9.20435 17.6839 8.44129 17.1213 7.87868C16.5587 7.31607 15.7956 7 15 7ZM10 0C10.197 -2.93527e-09 10.392 0.0387987 10.574 0.114181C10.756 0.189563 10.9214 0.300052 11.0607 0.43934C11.1999 0.578628 11.3104 0.743986 11.3858 0.925975C11.4612 1.10796 11.5 1.30302 11.5 1.5C11.5 1.69698 11.4612 1.89204 11.3858 2.07403C11.3104 2.25601 11.1999 2.42137 11.0607 2.56066C10.9214 2.69995 10.756 2.81044 10.574 2.88582C10.392 2.9612 10.197 3 10 3C9.60218 3 9.22064 2.84196 8.93934 2.56066C8.65804 2.27936 8.5 1.89782 8.5 1.5C8.5 1.10218 8.65804 0.720644 8.93934 0.43934C9.22064 0.158035 9.60218 5.92805e-09 10 0ZM2.5 0C2.69698 -2.93527e-09 2.89204 0.0387987 3.07403 0.114181C3.25601 0.189563 3.42137 0.300052 3.56066 0.43934C3.69995 0.578628 3.81044 0.743986 3.88582 0.925975C3.9612 1.10796 4 1.30302 4 1.5C4 1.69698 3.9612 1.89204 3.88582 2.07403C3.81044 2.25601 3.69995 2.42137 3.56066 2.56066C3.42137 2.69995 3.25601 2.81044 3.07403 2.88582C2.89204 2.9612 2.69698 3 2.5 3C2.10218 3 1.72064 2.84196 1.43934 2.56066C1.15804 2.27936 1 1.89782 1 1.5C1 1.10218 1.15804 0.720644 1.43934 0.43934C1.72064 0.158035 2.10218 5.92805e-09 2.5 0ZM17.5 0C17.697 -2.93527e-09 17.892 0.0387987 18.074 0.114181C18.256 0.189563 18.4214 0.300052 18.5607 0.43934C18.6999 0.578628 18.8104 0.743986 18.8858 0.925975C18.9612 1.10796 19 1.30302 19 1.5C19 1.69698 18.9612 1.89204 18.8858 2.07403C18.8104 2.25601 18.6999 2.42137 18.5607 2.56066C18.4214 2.69995 18.256 2.81044 18.074 2.88582C17.892 2.9612 17.697 3 17.5 3C17.1022 3 16.7206 2.84196 16.4393 2.56066C16.158 2.27936 16 1.89782 16 1.5C16 1.10218 16.158 0.720644 16.4393 0.43934C16.7206 0.158035 17.1022 5.92805e-09 17.5 0Z" fill="#3C6EEF"/>
</svg>
