<svg width="30" height="29" viewBox="0 0 30 29" fill="none" xmlns="http://www.w3.org/2000/svg">
<path d="M5.66667 20.5733C4.19118 19.7203 2.94159 18.5261 2.02255 17.0908C1.10352 15.6555 0.541794 14.0208 0.384433 12.3238C0.227072 10.6267 0.478654 8.91667 1.11811 7.33685C1.75756 5.75703 2.76627 4.35343 4.05975 3.24363C5.35322 2.13382 6.8938 1.35012 8.55245 0.958165C10.2111 0.566208 11.9395 0.577409 13.5929 0.990828C15.2464 1.40425 16.7767 2.20785 18.0557 3.33432C19.3346 4.4608 20.3251 5.87735 20.944 7.46533C22.8044 7.09757 24.735 7.46482 26.3304 8.49C27.9258 9.51517 29.0621 11.1185 29.5006 12.9635C29.9392 14.8086 29.646 16.7517 28.6825 18.3852C27.719 20.0186 26.1602 21.2153 24.3333 21.724V18.884C24.9496 18.5916 25.4942 18.1676 25.9289 17.642C26.3636 17.1164 26.6778 16.5018 26.8494 15.8417C27.021 15.1815 27.0457 14.4918 26.9219 13.821C26.7982 13.1502 26.5288 12.5147 26.1329 11.9593C25.737 11.4038 25.2242 10.9419 24.6305 10.6061C24.0368 10.2703 23.3767 10.0686 22.6967 10.0154C22.0167 9.96224 21.3333 10.0588 20.6946 10.2982C20.0559 10.5377 19.4775 10.9142 19 11.4013V11.3333C19 9.99887 18.6662 8.6856 18.029 7.51311C17.3918 6.34061 16.4714 5.34614 15.3517 4.62025C14.2319 3.89436 12.9484 3.46011 11.6179 3.35704C10.2874 3.25398 8.95229 3.48537 7.73409 4.03014C6.5159 4.57492 5.45333 5.41577 4.64315 6.47614C3.83297 7.53651 3.30091 8.78271 3.09542 10.1012C2.88993 11.4198 3.01754 12.7688 3.46663 14.0254C3.91572 15.282 4.67202 16.4064 5.66667 17.296V20.5733ZM8.33333 16.6667H11V24.6667H8.33333V16.6667ZM19 16.6667H21.6667V24.6667H19V16.6667ZM13.6667 20.6667H16.3333V28.6667H13.6667V20.6667Z" fill="#FF7171"/>
</svg>
